/* XPM */
static char *_fe3d4c7f87442ede73cebf57cf768aa[] = {
/* columns rows colors chars-per-pixel */
"128 128 63 1 ",
"  c #000006",
". c #00000C",
"X c #000015",
"o c #00001C",
"O c #0A0A1D",
"+ c #030323",
"@ c #0A0A25",
"# c #0E0E2B",
"$ c #111124",
"% c #13132D",
"& c #18182F",
"* c #151532",
"= c #191930",
"- c #232335",
"; c #25253A",
": c #29293B",
"> c #272741",
", c #2A2A40",
"< c #2F2F48",
"1 c #343443",
"2 c #36364F",
"3 c #3B3B4F",
"4 c #3B3B53",
"5 c #434353",
"6 c #47475C",
"7 c #48485E",
"8 c #4C4C61",
"9 c #525266",
"0 c #56566A",
"q c #59596B",
"w c #636376",
"e c #6D6D7E",
"r c #70707F",
"t c #6F6F82",
"y c #757584",
"u c #787887",
"i c #7B7B8A",
"p c #868694",
"a c #8A8A95",
"s c #8C8C99",
"d c #91919C",
"f c #9595A0",
"g c #9898A4",
"h c #9E9EA9",
"j c #A1A1AB",
"k c #A7A7B0",
"l c #AAAAB3",
"z c #B7B7BE",
"x c #B8B8BF",
"c c #BCBCC3",
"v c #C5C5CB",
"b c #CACACE",
"n c #CCCCD1",
"m c #D2D2D6",
"M c #D5D5DA",
"N c #DEDEE1",
"B c #E1E1E5",
"V c #E6E6E8",
"C c #EBEBED",
"Z c #EFEFF1",
"A c #F4F4F5",
"S c #FEFEFE",
"D c None",
/* pixels */
"DDDDDDDDDD-&=&&&&&&&&&&&&&&&&&&&&&&&&&&&&&&&&&&&&&&&&&&&&&&&&&&&&&&&&&&&&&&&&&&&&==&&&&&&&&&&&&&&&&&&&&&&&&&&&&&&&&&&-DDDDDDDDDD",
"DDDDDDD;#+++o+++++++o++++++++o+++++++++o+++++++o++++++o++++++++++o+++++++++o+++++++o++++++o+++++++o++++++++++++o++++++@#;DDDDDDD",
"DDDDDD%++++++++++++++++++++++++++++++++++++++++++++++++++++++++++++++++++++++++++++++++++++++++++++++++++++++++++++++++++#DDDDDD",
"DDDD:@o++++++++++++++++++++++++++++++++++++++++++++++++++++++++++++++++++++++++++++++++++++++++++++++++++++++++++++++o++++@:DDDD",
"DDD;++++++++++++++++++++++++++++++++++++++++++++++++++++++++++++++++++++++++++++++++++++++++++++++++++++++++++++++++++++++++:DDD",
"DDD@+++++++++++++++++++++++++++++++++++++++++++++++++++++++++++++++++++++++++++++++++++++++++++++++++++++++++++++++++++++++o@DDD",
"DD#o+++++++++++++++++++++++++++++++++++++++++++++++++++++++++++++++++++++++++++++++++++++++++++++++++++++++++++++++++++++++++#DD",
"D;++o++++++++++++++++++++++++++++@++++++++++++++++++++++++++++++++++++++++++++++++++++++++++++++++++++++@+++++++++++++++++++++;D",
"D#+++++++++++++++++++++++++++++++++++++++++++++++++++++++++++++++++++++++++++++++++++++++++++++++++++++++++++++++++++++++++++o#D",
"D@+++++++++++++++++++++++++++++++++++++++++++++++++++@++++++++++++++++++++++++++++++++++++++++++++++++++++++++++++++++++++++++@D",
"=++++++++++++++++++++++++++++++++++++++++++++++++++++++++++++++++++++++++++++++++++++++++++++++++++++++++++++++++++++++++++++++-",
"=++++++++++++++++++++++++++++++++++++++++++++++++++++++++++++++++++++++++++++++++++++++++++++++++++++++++++++++++++++++++++++++&",
"=o++++++++++++++++++++++++++++++++++++++++++++++++++++++++++++++++++++++++++++++++++++++++++++++++++++++++++++++++++++++++++++o&",
"%++++++++++++++++++++++++++++++++++++++++++++++++++++++++++++++++++++++++++++++++++++++++++++++++++++++++++++++++++++++++++++++&",
"%++++++++++++++++++++++++++++++++++++++++++++++++++++++++++++++++++++++++++++++++++++++++++++++++++++++++++++++++++++++++++++++&",
"%++++++++++++++++@+++++++++++++++++++++++++++++++++++++++++++++++++++++++++++++++++++++++++++++++++++++++++++++++++++++++++++++&",
"%++++++++++++++++++++++++++++++++++++++++++++++++++++++++++++++++++++++++++++++++++++++++++++++++++++++++++++++++++++++++++++++&",
"%+++++++++++++++++++++++++++++++@@@+++@@+@++@@@+++@@+@@@++@@@+++++++++@@@@@+++@@++@@+++++++++@@+@+@@+@@@@@+++++++++++++++++++++&",
"%+++++++++++++++++++++++++++++++oXXXoXXXXXoXXXXXXXXXXXXXXXXXXo++++++@oXXXXXXXXXXXXXX++++++++oX.XXXXXXXXXXXo@+++++++++++++++++++&",
"#++++++++++++++++++++++++++++++o=eyeteeeeeeeyreteteeeeeteteyw&o+++++o;weeeeryyeeter9@o+++++o2yyeeeeteeeeyw%o+++++++++++++++++++&",
"%o++++++++++++++++++++++++++++o6ASSSSSSSSSSSSSSSSSSSSSSSSSSSSC2o++@X8ASSSSSSSSSSSSSSv&o+++oiSSSSSSSSSSSSSSB,o@+++++++++++++++++&",
"%++++++++++++++++++++++++++++++mSASASASSASASASASSAASSSSASAASASco+++&BSASSASASASSSASASdo+@o<SSASSSAASSSSAASSzo++++++++++++++++++&",
"%+++++++++++++++++++++++++++@o*CSSSSSSSSSSSSSSSSSSSSSSSSSSSSSSB*o@o2SSSSSSSSSSSSSSSSSvo@@X7SSSSSSSSSSSSSSSSV#++++++++++++++++++&",
"%++++++++++++++++++++++++++++o*ZSSSSSSASSSSSSSSSSASSASSASSSSSSB#+++=CSASSSSSSSSSASSAShX@@X7SSSSSSASSASSSSSSC%o+++++++++++++++++&",
"%+++++++++++++++++++++++++++++*ZSSSSSSSSSSSSSSSSSSSSSSSSSSSSSSB#++@XySSSSSSSSSSSSSSSV>o++o6SSSSSSSSSSSSSSSSV%++++++++++++++++++&",
"%o++++++++++++++++++++++++++++*ZSSSSVddddkSSSSSVdddddddddASSSSB#o+++o4addhSSSSSBdddy=o@+@X7SSSSSnadddgASSSSV#++++++++++++++++++&",
"%+++++++++++++++++++++++++++++*ZSSSSb.XX.1SSSSSv.XXXXXXXOVSSSSB#+++++oXo.;ASSSSz oXXo+++@o7SSSSSa XXX$CSSSSV#+++++++++++++++++o&",
"%++++++++++++++++++++++++++++o*ZSSSSb+@@o2SSSSSvo+@@@@@+%VSSSSB#o+++++@+o,SSSASco+@@++++@X7SSSASdX@@+=ZSSSSC#++++++++++++++++++&",
"%o+++++++++++++++++++++++++++o*ZSSSSbo++o2SSSSSvo++++++o#VSSSSB#+++++++@o,SSSSSzX@++++++@X7SSSASsX@@o&CSSSSV#o+++++++++++++++++&",
"%++++++++++++@++++++++++++++++*ZSSSSbo++X2SSSSSvo+++++++#VSSSSB#++++++++o,ASSSSzo@++++++@X7SSSSSso@++&ZSSSSV#++++++++++++++++++&",
"%+++++++++++++++++++++++++++++*ZSSSSb++@o2SSSSSvo@+++++o#VSSSSB#o+++++++o,ASSSSzX++++++++o6SSSASsX+++*CSSSSV#++++++++++++++++++&",
"%++++++++++++++++++++++++++++o*ZSSSSbo+@o2SSSSSvo+++++++%VSSSSB#++++++++o,SSSSSzX@++++++@X7SSSSSdX++o&ZSSSSV#++++++++++++++++++&",
"%o++++++++++++++++++++++++++++*ZSSSSbo++o2SSSSSvo+++++++#VSSSSB#++++++++o,ASSSSzX+++++++@o7SSSSSaX@+o&CSSSSV*o+++++++++++++++++&",
"%++++++++++++++++++++++++++++o*CSSSSbo+@o2SSSSSvo@+++++o#VSSSSB#++++++++o,SSSSSzo@++++++@X7SSSASsX@++*CSSSSN+++++++++++++++++++&",
"%+++++++++++++++++++++++++++++obSAASho++o2SSSSSvo+++++++#VSSSSB#++++++++o,ASSSSzX@++++++@X7SSSASaX++@ocSASSko++++++++++++++++++&",
"%++++++++++++++++++++++++++++@o4CSSM-+++o2SSSSSvo@++++++#VSSSSB#++++++++o,ASSSSzo++++++o@X7SSSSSdX@++o>NSSM;o@++++++@++++++++++&",
"%+++++++++++++++++++++++++++++++&q8@o@++o2SSSSSvo+++++++#VSSSSB#o+++++++o,SSSSSzX++++++++o6SSSASaX++++o#09#o+++++++++++++++++++&",
"%o+++++++++++++++++++++++++++++++XX+++++o2SSSSSvo@++++++#VSSSSB#+++++++@o,ASSSSzX@++++++@X7SSSSSdX@+++++XX+++++++++++++++++++++&",
"%++++++++++++++++++++++++++++++++@@++++@o2SSSSSvo++++++o#VSSSSB#++++++++o:SSSSSxo+++++++@o7SSSSSaX@++++++@++++++++++++++++++++o&",
"%+++++++++++++++++++++++++++++++++++++++X2SSSSSvo+++++++#VSSSSB#o++++++@o<ASSSSzo+++++++@X7SSSASsX@++++++++++++++++++++++++++++&",
"#+++++++++++++++++++++++++++++++++++++++o2SSSSSvo+++++++%VSSSSB#++++++++o,ASSSSzX@++++++@X6SSSASsX@++++++++++++++++++++++++++++&",
"#+++++++++++++++++++++++++++++++++++++++o2SSSSSvo@+++++o#VSSSSB#o+++++++o,SSSSSzo+++++++@X7SSSSSaX@++++++++++++++++++++++++++++&",
"&o+++@++++++++++++++++++++++++++++++++++X2SSSSSvo+++++++#VSSSSB#++++++++o,ASSSSzX+++++++@o7SSSASaX+++++++++++++++++++++++++++++&",
"%++++++++++++++++++++++++++++++++++++++@o2SSSSSvo@++++++#VSSSSB#++++++++o,SSSSSzo@++++++@X7SSSSSdX@++++++++++++++++++++++++++++&",
"%+++++++++++++++++++++++++++++++++++++++o2SSSSSvo+++++++#VSSSSB#+++++++@o,ASSSSzo++++++++X7SSSSSaX@++++++++++++++++++++++++++++&",
"%+++++++++++++++++++++++++++++++++++++++o2SSSSSvo++++++o#VSSSSB#++++++++o,SSSSSzX@++++++@o6SSSASsX+++++++++++++++++++++++++++++&",
"%++++++++++++++++++++++++++++++++++++++@o2SSSSSvo@++++++#VSSSSB#o+++++++o,ASSSSxX@+++++o@X7SSSASsX@++++++++++++++++++++++++++++&",
"%o+++++++++++++++++++++++++++++++++++++@X2SSSSSvo+++++@o#VSSSSB#++++++++o,SSSSSzo+++++++@X7SSSSSaX@++++++++++++++++++++++++++++&",
"%+++++++++++++++++++++++++++++++++++++++X2SSSSSvo@++++++#VSSSSB#++++++++o,SSSSSzo@+++++++X7SSSASsX@++++++++++++++++++++++++++++=",
"#++++++++++++++++++++++++++++++++++++++@o2SSSSSvo+++++++#VSSSSB#o+++++++o,ASSSSzX++++++++X7SSSSSsX++++++++++++++++++++++++++++o=",
"%o+++++++++++++++++++++++++++++++++++++@o2SSSSSvo++++++o#VSSSSB#++++++++o,SSSSSxo@++++++@o7SSSSSsX+++++++++++++++++++++++++++++&",
"%+++++++++++++++++++++++++++++++++++++++o2SSSSSvo@++++++#VSSSSB#o+++++++o,ASSSSxX+++++++@X7SSSASdX@+++++++++@++++++++++++++++++&",
"%++++++++++++++++++++++++++++++++++++++@o2SSSSSvo@++++++#VSSSSB#+++++++@o,ASSASco@+++++o@X7SSSASaX+++++++++++++++++++++++++++++&",
"%+++++++++++++++++++++++++++++++++++++++X2SSSSSvo++++++o#VSSSSB#++++++++o,SSSSSzX+++++++@X7SSSSSsX@++++++++++++++++++++++++++++&",
"%+++++++++++++++++++++++++++++++++++++++o2SSSSSvo@++++++#VSSSSB#o+++++++o,SSSSSzX@+++++++o6SSSASsX@++++++++++++++++++++++++++++&",
"%o++++++++++++++++++++++++++++++++++++++o2SSSSSvo++++++o%VSSSSB#++++++++o,ASSSSzo@++++++@X7SSSSSsX+++++++++++++++++++++++++++++&",
"%++++++++++++++++++++++++++++++++++++++++2SSSSSvo++++++o#VSSSSB#++++++++o,SSSSSzX@++++++@o7SSSSSsX@++++++++++++++++++++++++++++&",
"%++++++++++++++++++++++++++++++++++++++++2SSSSSvo@++++++#VSSSSB#++++++++o,ASSSSzo+++++++@X7SSSASsX+++++++++++++++++++++++++++++&",
"%o++++++++++++++++++++++++@++++++++++++@o2SSSSSv+++++++o%VSSSSB#++++++++o,SSSSSxX@++++++@X7SSSASsX@+++++++++++++++++++++++++++o&",
"%+++++++++++++++++++++++++++++++++++++++o2SSSSSvo+++++++#VSSSSB#++++++++o,ASSSSxo+++++++@X7SSSSSs.@++++++++++++++++++++++++++++&",
"%+++++++++++++++++++++++++++++++++++++++o2SSSSSvo+++++++#VSSSSB#o++++++@o,ASSAScX@+++++++o6SSSASsX+++++++++++++++++++++++++++++&",
"#++++++++++++++++++++++++++++++++++++++@X2SSSSSvo@+++++o#VSSSSB#++++++++o,SSSSSzo+++++++@X7SSSSSsX@++++++++++++++++++++++++++++&",
"%o++++++++++++++++++++++++++++++++++++++o2SSSSSvo+++++++#VSSSSB#o+++++++o,SSSSSzX@++++++@o7SSSSSsX@++++++++++++++++++++++++++++&",
"%+++++++++++++@++++++++++++++++++++++++@o2SSSSSvo@++++++#VSSSSB#+++++++@o,ASSSSzX+++++++@X7SSSASsX+++++++++++++++++++++++++++++&",
"*+++++++++++++++++++++++++++++++++++++++o2SSSSSvo+++++++%VSSSSB#++++++++o,SSSSSzo@+++++++X7SSSASdX@++++++++++++++++++++++++++++&",
"%+++++++++++++++++++++++++++++++++++++++o2SSSSSvo+++++++#VSSSSB#o+++++++o,ASSSSzX++++++++X7SSSSSsX@o+++++++++++++++++++++++++++&",
"%++++++++++++++++++++++++++@++++++++++++o2SSSSSvo@+++++o#VSSSSB#++++++++o,SSSSSxo@++++++@o7SSSSSsX++++++++++++++++++++++@++++++&",
"%+++++++++++++++++++++++++++++++@++++++@X2SSSSSvo+++++++#VSSSSB#o+++++++o,ASSSSxX+++++++@X7SSSASsX@++++++++++++++++++++++++++++&",
"%+++++++++++++++++++++++++++++++++++++++o2SSSSSvo++++++o#VSSSSB#+++++++@o,ASSASco@+++++o@X7SSSASsX@++++++++++++++++++++++++++++&",
"%++++++++++++++++++++++++++++++++++++++@o2SSSSSvo@++++++#VSSSSB#++++++++o,SSSSSzX+++++++@X7SSSSSsX+++++++++++++++++++++++++++++&",
"%+++++++++++++++++++++++++++++++++++++++o2SSSSSvo+++++++#VSSSSB#o+++++++o,SSSSSzX@+++++++o6SSSASsX+++++++++++++++++++++++++++++&",
"%o+++++++++++++++++++++++++++++++++++++@o2SSSSSvo++++++o#VSSSSB#++++++++o,ASSSSzo@++++++@X7SSSSSdX@++++++++++++++++++++++++++++&",
"%+++++++++++++++++++++++++++++++++++++++X2SSSSSvo@++++++#VSSSSB#++++++++o,SSSSSzX@++++++@o7SSSSSaX@++++++++++++++++++++++++++++&",
"#+++++++++++++++++++++++++++++++++++++++o2SSSSSvo+++++++#VSSSSB#++++++++o,ASSSSzo+++++++@X7SSSASsX@++++++++++++++++++++++++++++&",
"#+++++++++++++++++++++++++++++++++++++++o2SSSSSvo+++++++#VSSSSB#++++++++o,SSSSSxX@++++++@X7SSSASdX++++++++++++++++++++++++++++o&",
"&o++++++++++++++++++++++++++++++++++++++o2SSSSSvo+++++++#VSSSSB#++++++++o,ASSSSxo+++++++@X7SSSSSaX+++++++++++++++++++++++++++++&",
"%++++++++++++++++++++++++++++++++++++++@o2SSSSSvo@+++++o#VSSSSB#o++++++@o,ASSAScX@+++++++o6SSSASsX@++++++++++++++++++++++++++++&",
"%++++++++++++++++++++++++++++++++++++++@X2SSSSSvo+++++++#VSSSSB#++++++++o,SSSSSzo+++++++@X7SSSSSsX+++++++++++++++++++++++++++++&",
"%+++++++++++++++++++++++++++++++++++++++o2SSSSSvo@++++++#VSSSSB#o+++++++o,SSSSSzX@++++++@o7SSSSSa.@++++++++++++++++++++++++++++&",
"%o++++++++++++++++++++++++++++++++++++++o2SSSSSvo++++++o%VSSSSB#+++++++@o,ASSSSzX+++++++@X7SSSASdX@++++++++++++++++++++++++++++&",
"%++++++++++++++++++++++++++++++++++++++++2SSSSSvo+++++++#VSSSSB#++++++++o,ASSSSzo@++++++@X6SSSASdX+++++++++++++++++++++++++++++&",
"%++++++++++++++++++++++++++++++++++++++++2SSSSSvo@+++++o#VSSSSB#o++++++@o,SSSSSzX+++++++@X7SSSSSso+@+++++++++++++++++++++++++++&",
"%++++++++++++++++++++++++++++++++++++++@o2SSSSSvo+++++++#VSSSSB#++++++++o,ASSSSzo+++++++@o7SSSASsX+++++++++++++++++++++++++++++&",
"%o++++++++++++++++++++++++++++++++++++++o2SSSSSvo@++++++#VSSSSB#o+++++++o,SSSSSzX@++++++@X7SSSSSsX+++++++++++++++++++++++++++++&",
"%+++++++++++++++++++++++++++++++++++++++o2SSSSSvo+++++++#VSSSSB#++++++++o,ASSSSzX@+++++++X7SSSSSsX+++++++++++++++++++++++++++++&",
"#++++++++++++++++++++++++++++++++++++++@o2SSSSSvo@++++++#VSSSSB#++++++++o,SSSSSzX+++++++@o6SSSASaX@++++++++++++++++++++++++++++&",
"%o++++++++++++++++++++++++++++++++++++++o2SSSSSvo++++++o#VSSSSB#++++++++o,ASSSSzo@++++++@X7SSSASaX@+++++++++++++++++++++++++++o&",
"%++++++++++++@+++++++++++++++++++++++++@X2SSSSSvo+++++++#VSSSSB#++++++++o,SSSSSzX+++++++@X7SSSSSsX@++++++++++++++++++++++++++++&",
"%+++++++++++++++++++++++++++++++++++++++o2SSSSSvo+++++++%VSSSSB#o+++++++o,ASSSSzo++++++o@X7SSSASsX@++++++++++++++++++++++++++++&",
"%+++++++++++++++++++++@@++++++++++++++++o2SSSSSvo@+++++o#VSSSSB#++++++++o,ASSSSzX@++++++@X8SSSSSsX+++++++++++@+++++++++++++++++&",
"%+++++++++++++++++++++XX++++++++++++++++X2SSSSSvo+++++++#VSSSSB#++++++++o,SSSSSzo+++++++@o6SSSSSs.@++++++++++++++++++++++++++++&",
"#+++++++++++++++++++o@77@++++++++++++++@o2SSSSSvo@++++++#VSSSSB#o++++++@o<ASSSSxX@++++++@X7SSSASsX@++++++++++++++++++++++++++++&",
"%o+++++++++++++++++o-MSSM;o+++++++++++++o2SSSSSvo+++++++#VSSSSB#++++++++o,SSSSSzo++++++++X7SSSASdX+++++++++++++++++++++++++++++&",
"%+++++++++++++++++@olSSASzo@++++++++++++o2SSSSSvo++++++o#VSSSSB#o+++++++o,ASSSSzX@++++++@X7SSSSSsX+++++++++++++++++++++++++++++&",
"#++++++++++++++++++#BSSSSV%++++++++++++@o2SSSSSvo@++++++#VSSSSB#++++++++o,ASSSSzo+++++++@X6SSSSSsX+@++++++++++++++++++++++++++o&",
"%+++++++++++++++++o*VSSSSC&o+++++++++++@X2SSSSSvo+++++@o#VSSSSB#++++++++o,SSSSSzX@+++++++o8SASSSsX+++++++++++++++++++++++++++++&",
"%++++++++++++++++++#VSSSSC*++++++++++++@o2SSSSSvo@++++++#VSSSSB#++++++++o,ASSSSzo@++++++@o7SSSSSsX@++++++++++++++++++++++++++++&",
"%o+++++++++++++++++#CSSSSZ&o++++++++++++o2SSSSSvo+++++++#VSSSSB#++++++++o,SSSSSxX+++++++@X7SSSASsX+++++++++++++++++++++++++++++&",
"%+++++++++++++++++o#VSSSSC&+++++++++++++o2SSSSSvo++++++o#VSSSSB#o+++++++o,SSSSSxo@++++++@X7SSSASs.@++++++++++++++++++++++++++++&",
"%++++++++++++++++++#VSSSSZ*++++++++@++++o2SSSSSvo@++++++#VSSSSB#+++++++@o,ASSASxX++++++@@X7SSSSSsX@++++++++++++++++++++++++++++&",
"%o+++++++++++++++++#VSSSSZ=+@@@+@+++@@+@o2SSSSSvo@+++++o#VSSSSB#+@@+@++@+,ASSASxo@@@@@+++o8SSSASdX++++++++++++++++@+++++++++++o&",
"%++++++++++++++++++#VSSSSC$XoXXXXXXXXXoX.1SSSSSvo+++++++#VSSSSNOXXXXXXXo.;ASSSSx.XXXXXXXo 5SSSSSsX+++++++++++++++++++++++++++++&",
"%++++++++++++++++++#VSSSSAityyytyytyytyyedSSSSSvo@++++++#VSSSSAityytyytytaSSSSSmeyytytyyyegSSSSSsX+@+++++++++++++++++++++++++++&",
"%++++++++++++++++++#CSSSSSSSSSSSSSSSSSSSSSSSSSSvo++++++o%VSSSSSSSSSSSSSSSSSSSSSSSSSSSSSSSSSSSSASsX+++++++++++++++++++++++++++++&",
"%o++++++++++++++++o*CSSSSSSASSASSSASSASASSSSSSSvo+++++++#VSSSSSSSASASSASSSSSSSSSSASASSASSSASSSASaX+++++++++++++++++++++++++++++&",
"%++++++++++++++++++&ZSSSSSSSSSSSSSSSSSSSSSSSSSSbo++++++o#VSSSSSSSSSSSSSSSSSSSSSSSSSSSSSSSSSSSSSSdX@++++++++++++++++++++++++++++&",
"%++++++++++++++++++ocSASSSASASSASAASSSASASSAASSdo+++++++ovSASAASSSASASSASSSSSSSSSSASASSASAASSASSwX@++++++++++++++++++++++++++++&",
"%++++++++++++++++++o2CSSSSSSSSSSSSSSSSSSSSSSSSM=+++++++@o4ASSSSSSSSSSSSSSSSSSSSSSSSSSSSSSSSSSSSc@++++++++++++++++++++++++++++++&",
"%+++++++++++++++++++o=tiyyyyuuuuyuyuuyyyuuuyiw#o++++++++@o=tiyyuuyyyuuuuyyuuuuyyuyyyuuuuyuyuyi0+o@+++++++++++++++++++++++++++++&",
"%o+++++++++++++++++++oXXXXXXXXXXXXXXXXXXXXXXXXo@++++++++++oXXXXXXXXXXXXXXXXXXXXXXXXXXXXXXXXXXXX++++++++++++++++++++++++++++++++&",
"%+++++++++++++++++++++@@@@@@@@@+@+@@@@@@@@@+@@+++++++++++++@@@@+@@@@@@@+@@@@+@@@@@@@@@@+@+@@@@@+++++++++++++++++++++++++++++++o&",
"%++++++++++++++++++++++++++++++++++++++++++++++++++++++++++++++++++++++++++++++++++++++++++++++++++++++++++++++++++++++++++++++&",
"#++++++++++++++++++++++++++++++++++++++++++++++++++++++++++++++++++++++++++++++++++++++++++++++++++++++++++++++++++++++++++++++&",
"%++++++++++++++++++++++++++++++++++++++++++++++++++++++++++++++++++++++++++++++++++++++++++++++++++++++++++++++++++++++++++++++&",
"%++++++++++++++++++++++++++++++++++++++++++++++++++++++++++++++++++++++++++++++++++++++++@++++++++++++++++++++++++++++@++++++++&",
"&o+++++++++++++++++++++++++++++++++++++++++++++++++++++++++++++++++++++++++++++++++++++++++++++++++++++++++++++++++++++++++++++&",
"&++++++++++++++++++++++++++++++++++++++++++++++++++++++++++++++++++++++++++++++++++++++++++++++++++++++++++++++++++++++++++++++&",
"=@++++++++++++++++++++++++++++++++++++++++++++++++++++@++++++++++++++++++++++++++++++++++++++++++++++++++++++++++++++++++++++++=",
"D+++++++++++++++++++++++++++++++++++++++++++++++++++++++++++++++++++++++++++++++++++++++++++++++++++++++++++++++++++++++++++++@D",
"D#+++++++@++++++++++++++++++++++++++++++++++++++++++++++++++++++++++++++++++++++++++++++++++++++++++++++++++++++++++++++++++++#D",
"D;++++++++++++++++++++++++++++++++++++++++++++++++++++++++++++++++++++++++++++++++++++++++++++++++++++++++++++++++++++++++++++;D",
"DD#o++++++++++++++++++++++++++++++++++++++++++++++++++++++++++++++++++++++++++++++++++++++++++++++++++++++++++++++++++++++++o#DD",
"DD1@+++++++++++++++++++++++@+++++++++++++++++++++++++++++++++++++++++++++++++++++++++++++++++++++++++@++++++++++++++++++++++@DDD",
"DDD:+o++++++++++++++++++++++++++++++++++++++++++++++++++++++++++++++++++++++++++++++++++++++++++++++++++++++++++++++++++++o+;DDD",
"DDDD;@o+++++++++++++++++++++++++++++++++++++++++++++++++++++++++++++++++++++++++++++++++++++++++++++++++++++++++++++++++++@:DDDD",
"DDDDD1#+o++++++++++++++++++++++++++++++++++++++++++++++++++++++++++++++++++++++++++++++++++++++++++++++++++++++++++++@+oo#DDDDDD",
"DDDDDDD;#@++++o++++++o+++o++o+++++o++++o+++o++o+++o++++++o+++o++o++++o++o++++o+++o+++o++o++++o++o++++o++++o++++o++++++@#;DDDDDDD",
"DDDDDDDDDD&&&#&##%%%%#%%%%%%%%%#%%%#%%%%%%%%%%%%%#&##%%%%%%%%%%%%%%%%%#%%%%%%#&#%%%%%%%%%%%%%%#%%%%%%%%#%%%%%%%%#%%%&=DDDDDDDDDD"
};
