/* XPM */
static char *e2f8297b5d314bd8924ccb50830eda81[] = {
/* columns rows colors chars-per-pixel */
"32 32 158 2 ",
"   c #000001",
".  c #000003",
"X  c #000005",
"o  c #00000A",
"O  c #00000E",
"+  c #000011",
"@  c #000013",
"#  c #000014",
"$  c #000015",
"%  c #000016",
"&  c #000017",
"*  c #000019",
"=  c #00001A",
"-  c #00001B",
";  c #060618",
":  c #060619",
">  c #07071A",
",  c #00001C",
"<  c #00001D",
"1  c #00001E",
"2  c #01011E",
"3  c #00001F",
"4  c #01011F",
"5  c #08081B",
"6  c #000020",
"7  c #010120",
"8  c #000021",
"9  c #010121",
"0  c #020221",
"q  c #030321",
"w  c #010122",
"e  c #020222",
"r  c #030322",
"t  c #020223",
"y  c #030323",
"u  c #040422",
"i  c #040423",
"p  c #030324",
"a  c #040424",
"s  c #050524",
"d  c #050525",
"f  c #060625",
"g  c #070725",
"h  c #060626",
"j  c #070726",
"k  c #080826",
"l  c #080827",
"z  c #090928",
"x  c #0A0A29",
"c  c #0B0B29",
"v  c #0B0B2A",
"b  c #0C0C2B",
"n  c #0D0D2B",
"m  c #0E0E2C",
"M  c #0F0F2D",
"N  c #121224",
"B  c #10102D",
"V  c #10102E",
"C  c #10102F",
"Z  c #13132F",
"A  c #161632",
"S  c #161633",
"D  c #171733",
"F  c #191935",
"G  c #1A1A36",
"H  c #1A1A37",
"J  c #1B1B38",
"K  c #1E1E3A",
"L  c #212132",
"P  c #20203C",
"I  c #21213D",
"U  c #22223E",
"Y  c #23233E",
"T  c #23233F",
"R  c #24243F",
"E  c #262641",
"W  c #272742",
"Q  c #282843",
"!  c #292943",
"~  c #292944",
"^  c #2A2A45",
"/  c #34344E",
"(  c #36364F",
")  c #43435A",
"_  c #43435B",
"`  c #48485E",
"'  c #51515F",
"]  c #4F4F65",
"[  c #505066",
"{  c #515167",
"}  c #525268",
"|  c #535369",
" . c #545469",
".. c #54546A",
"X. c #57576C",
"o. c #5B5B6F",
"O. c #626276",
"+. c #636377",
"@. c #6A6A7D",
"#. c #6B6B7D",
"$. c #6D6D7E",
"%. c #707081",
"&. c #727283",
"*. c #7B7B85",
"=. c #797989",
"-. c #84848E",
";. c #85858E",
":. c #8C8C94",
">. c #8C8C95",
",. c #8B8B99",
"<. c #8F8F9C",
"1. c #919199",
"2. c #90909D",
"3. c #91919D",
"4. c #9292A0",
"5. c #9494A1",
"6. c #A3A3AE",
"7. c #A9A9B3",
"8. c #B1B1BA",
"9. c #B2B2BC",
"0. c #B6B6BF",
"q. c #B7B7C0",
"w. c #BCBCC4",
"e. c #BFBFC6",
"r. c #C3C3CB",
"t. c #C5C5CA",
"y. c #C6C6CC",
"u. c #C7C7CE",
"i. c #C8C8CB",
"p. c #C8C8CF",
"a. c #C9C9CF",
"s. c #C9C9D0",
"d. c #CACAD0",
"f. c #CBCBD1",
"g. c #D3D3D8",
"h. c #D8D8DD",
"j. c #DBDBDF",
"k. c #E1E1E5",
"l. c #E3E3E6",
"z. c #E4E4E7",
"x. c #E6E6E8",
"c. c #E7E7EA",
"v. c #F1F1F3",
"b. c #F2F2F3",
"n. c #F3F3F4",
"m. c #F4F4F5",
"M. c gray97",
"N. c #F6F6F8",
"B. c #F7F7F8",
"V. c #F8F8F9",
"C. c #F9F9F9",
"Z. c #FBFBFB",
"A. c #FBFBFC",
"S. c gray99",
"D. c #FDFDFD",
"F. c #FEFEFE",
"G. c gray100",
"H. c None",
/* pixels */
"H.H.f f f k f k f f f f f k f f k f k f f f f k f k f k f f H.H.",
"H.i e e e e e e e e e e e e e e e e e e e e e e e e e e e e i H.",
"k e e f i e e i f f f f f f f e p f i f f e e f i f f e i e e k ",
"f e p e e e i e , * * , * , * e p , * * , e e , * , , p e i e f ",
"f e e p f e p e T E R E T T ! c , S E E T f f T E E A e e p e f ",
"f e f e e f * ( S.S.S.S.S.S.S.6.e c.S.B.S.] ( S.C.S.h.v e e e k ",
"f e f e e f & _ S.=.q.S.$.o.l.r.* ] w.B.%.v ] S.%.9.C.C , i e f ",
"f e e i e f & _ S.L -.C.> . i.a.* . :.v.> O | S.N *.S.M e i e k ",
"f e e e e f * ( S.J ,.C.c * f.a.* & 3.m.M + X.S.G @.x.f e e e k ",
"f e e p f e e i G + 4.B.c & f.a.* + <.m.v & ..S.Q , A e e e e f ",
"f e f e e e i e i + 4.B.c + s.u.* & <.m.k + X.S.~ * e e e e e k ",
"f e p e f e e p k + 4.B.c & s.a.* + <.m.k & X.S.~ , f e i i e f ",
"f e f e e p e e f + 4.B.v & s.a.* + <.m.v + | S.~ * i f e f e f ",
"f e e p f e f e f + 4.B.v + s.a., & <.m.v + ..S.! * f e i e e f ",
"f e e e e e f p k + 4.B.v & a.a.* & <.m.v + X.S.! * f e e i e f ",
"f e f e e p e e f + 4.C.v + a.a.* + <.m.k & ..S.~ * f e i e e k ",
"f e e e f e e f f + 4.B.c + s.a.* + <.m.v + | S.~ , f e e e e f ",
"f e p f e p e e f + 4.B.c & s.a.* & <.m.v + | S.~ * f e f e e k ",
"f e p e e p e p k + 4.B.c & s.a.* & <.m.v + X.S.~ * f i e i e f ",
"f e e e f e e f f + 4.C.c + s.a.* + <.m.k & X.S.! * f i f e e k ",
"f e e p e f e e k + 4.C.c + s.a.* + <.m.v + X.S.! * f p e e e k ",
"f e e e e , e e f + 4.B.c & s.s.* & <.m.k & X.S.! * f e e p e f ",
"f e f e e Z f e f + 4.B.c + s.u.* + <.m.v + ..S.! * i e i e e k ",
"f e e e f x.%.& M & 5.B.c & s.u., * 3.m.c & X.S.~ * f f e i e f ",
"f e p e M S.;.  >   1.C.v + s.i.o . >.m.>   { S.~ * f e e f e f ",
"f e f , M B.9.| +...w.v.c & u.l.X.| q.C.+...3.S.~ * f e p e e f ",
"f e e e c h.S.S.S.S.S.g.v & 7.S.A.S.S.S.S.S.S.m.T , f p e i e f ",
"f e p e e G ~ E R R ~ A , e M ! E E E ! R E E K e e e e i e e k ",
"f e p e e , , * * , * e p e e * * * , * * , * , e e p e e e e f ",
"f e e e p f f f f f f p e e e f f f f f f f f p e f e p f e e f ",
"H.f e e e e e e e e e e e e e e e e e e e e e e e e e e e e f H.",
"H.H.f f f f f f f f f f f f f f f f f f f f f f f f f f f f H.H."
};
