/* XPM */
static char *_6df87e848e94aaac7629441e8d2b882[] = {
/* columns rows colors chars-per-pixel */
"16 16 61 1 ",
"  c #00000B",
". c #000011",
"X c #000016",
"o c #010119",
"O c #05051A",
"+ c #00001F",
"@ c #020222",
"# c #030324",
"$ c #040424",
"% c #050524",
"& c #0C0C20",
"* c #090926",
"= c #080827",
"- c #0E0E27",
"; c #090928",
": c #0B0B2A",
"> c #0F0F2D",
", c #11112F",
"< c #1D1D3A",
"1 c #242436",
"2 c #252539",
"3 c #20203C",
"4 c #262641",
"5 c #2C2C46",
"6 c #313146",
"7 c #30304A",
"8 c #31314B",
"9 c #363650",
"0 c #383851",
"q c #3C3C55",
"w c #3F3F58",
"e c #434356",
"r c #4E4E64",
"t c #525261",
"y c #505066",
"u c #55556A",
"i c #69697C",
"p c #737384",
"a c #80808F",
"s c #808090",
"d c #898998",
"f c #8C8C9A",
"g c #8F8F9D",
"h c #91919F",
"j c #9797A3",
"k c #9797A4",
"l c #9A9AA6",
"z c #9E9EA6",
"x c #9C9CA8",
"c c #A5A5AB",
"v c #A6A6AD",
"b c #A6A6B1",
"n c #A8A8B3",
"m c #A9A9B3",
"M c #AAAAB4",
"N c #ACACB7",
"B c #B1B1BB",
"V c #B4B4BD",
"C c #BEBEC6",
"Z c #C1C1C8",
"A c #CDCDD2",
/* pixels */
"*$$$;*;;$;$*;*@*",
"$@@@...Xo.oo.+@$",
"$@+,dhxiwburbqo$",
"$$o9BCiB4A9fVs.;",
"$$+<ez1b$c-ht9o$",
"@@$+.N2M*M,l6.$$",
"$@@$@M4M*M>l8+$$",
"$$@$+N4M;M,l8o$$",
"$@@@@M4b;M,l8o@$",
"$@$$@M4M;M,l8X$$",
"$$o$@M4M;N,l8o$$",
"$ow2 b4vOv&j8o$$",
"*.dd0C3VrZyV5o#$",
"$@qlja$plhjd>+@$",
"$$+ .X$X.X.X@@@$",
"*$$***$$****$$$;"
};
