/* XPM */
static char *ea44d654acb04124c4edfeefa6ca6f6a[] = {
/* columns rows colors chars-per-pixel */
"64 64 224 2 ",
"   c #000004",
".  c #000008",
"X  c #000009",
"o  c #00000A",
"O  c #00000B",
"+  c #00000C",
"@  c #00000D",
"#  c #00000E",
"$  c #000011",
"%  c #000012",
"&  c #000013",
"*  c #000014",
"=  c #000015",
"-  c #000016",
";  c #000017",
":  c #000018",
">  c #010118",
",  c #000019",
"<  c #010119",
"1  c #00001A",
"2  c #01011A",
"3  c #00001B",
"4  c #03031B",
"5  c #00001C",
"6  c #00001D",
"7  c #01011D",
"8  c #03031D",
"9  c #00001E",
"0  c #01011E",
"q  c #00001F",
"w  c #04041C",
"e  c #04041F",
"r  c #000020",
"t  c #010120",
"y  c #010121",
"u  c #020221",
"i  c #010122",
"p  c #020222",
"a  c #030322",
"s  c #020223",
"d  c #030323",
"f  c #060621",
"g  c #040423",
"h  c #070722",
"j  c #030324",
"k  c #040424",
"l  c #050524",
"z  c #040425",
"x  c #050525",
"c  c #060625",
"v  c #070725",
"b  c #060626",
"n  c #070726",
"m  c #060627",
"M  c #070727",
"N  c #080822",
"B  c #080823",
"V  c #090924",
"C  c #080826",
"Z  c #090927",
"A  c #0A0A27",
"S  c #0C0C27",
"D  c #0D0D27",
"F  c #090928",
"G  c #0B0B28",
"H  c #0C0C28",
"J  c #0C0C29",
"K  c #0F0F2D",
"L  c #111128",
"P  c #13132D",
"I  c #10102E",
"U  c #11112F",
"Y  c #12122F",
"T  c #14142D",
"R  c #15152D",
"E  c #14142E",
"W  c #15152E",
"Q  c #1A1A2F",
"!  c #131330",
"~  c #151532",
"^  c #171733",
"/  c #171734",
"(  c #1A1A31",
")  c #1B1B32",
"_  c #181834",
"`  c #191936",
"'  c #1D1D37",
"]  c #1E1E38",
"[  c #1E1E39",
"{  c #1F1F39",
"}  c #1F1F3A",
"|  c #212136",
" . c #20203A",
".. c #21213C",
"X. c #23233F",
"o. c #25253C",
"O. c #24243E",
"+. c #24243F",
"@. c #25253F",
"#. c #262641",
"$. c #272741",
"%. c #272742",
"&. c #282841",
"*. c #292944",
"=. c #2B2B45",
"-. c #2F2F48",
";. c #303049",
":. c #35354D",
">. c #34344E",
",. c #3A3A52",
"<. c #3B3B52",
"1. c #3A3A53",
"2. c #3B3B53",
"3. c #3C3C53",
"4. c #3C3C54",
"5. c #3D3D54",
"6. c #3D3D55",
"7. c #3E3E56",
"8. c #3F3F56",
"9. c #404057",
"0. c #424258",
"q. c #43435A",
"w. c #44445B",
"e. c #45455C",
"r. c #48485B",
"t. c #48485E",
"y. c #49495F",
"u. c #4A4A5F",
"i. c #4A4A60",
"p. c #4B4B60",
"a. c #4A4A61",
"s. c #4B4B61",
"d. c #696978",
"f. c #69697B",
"g. c #6A6A7B",
"h. c #6C6C7D",
"j. c #767684",
"k. c #7A7A87",
"l. c #787889",
"z. c #7A7A89",
"x. c #79798A",
"c. c #7A7A8B",
"v. c #7B7B8B",
"b. c #7C7C8B",
"n. c #7D7D8C",
"m. c #808090",
"M. c #818191",
"N. c #828291",
"B. c #9797A3",
"V. c #9C9CA8",
"C. c #9F9FAA",
"Z. c #A0A0A9",
"A. c #A0A0AB",
"S. c #A0A0AC",
"D. c #A2A2AD",
"F. c #A3A3AD",
"G. c #A3A3AE",
"H. c #A7A7B1",
"J. c #A9A9B3",
"K. c #B0B0BA",
"L. c #B1B1BB",
"P. c #B3B3BD",
"I. c #B4B4BD",
"U. c #B4B4BE",
"Y. c #B5B5BE",
"T. c #B5B5BF",
"R. c #B6B6BF",
"E. c #B6B6C0",
"W. c #B7B7C0",
"Q. c #BBBBC3",
"!. c #BDBDC5",
"~. c #BEBEC5",
"^. c #BEBEC6",
"/. c #BFBFC6",
"(. c #BFBFC7",
"). c #C3C3CA",
"_. c #C4C4CA",
"`. c #C4C4CB",
"'. c #C5C5CB",
"]. c #C8C8CE",
"[. c #C9C9CE",
"{. c #CCCCD2",
"}. c #D3D3D7",
"|. c #D3D3D8",
" X c #D4D4D8",
".X c #D4D4D9",
"XX c #D8D8DD",
"oX c #D9D9DD",
"OX c #DADADD",
"+X c #DADADE",
"@X c #DBDBDE",
"#X c #DCDCDF",
"$X c #DDDDE0",
"%X c #E0E0E3",
"&X c #E3E3E7",
"*X c #E7E7E9",
"=X c #E8E8EA",
"-X c #E8E8EB",
";X c #E9E9EB",
":X c #E9E9EC",
">X c #EAEAEC",
",X c #EAEAED",
"<X c #EBEBED",
"1X c #ECECED",
"2X c #ECECEE",
"3X c #F2F2F3",
"4X c #F3F3F3",
"5X c #F3F3F4",
"6X c #F4F4F5",
"7X c #F6F6F7",
"8X c #F8F8F8",
"9X c #F8F8F9",
"0X c #F9F9F9",
"qX c #F9F9FA",
"wX c #FAFAFB",
"eX c #FBFBFB",
"rX c gray99",
"tX c #FCFCFD",
"yX c #FDFDFD",
"uX c #FDFDFE",
"iX c #FEFEFE",
"pX c #FEFEFF",
"aX c gray100",
"sX c None",
/* pixels */
"sXsXsXsXW G J S J S J S J S J S J J J J S J J J S J S J J J J S J S J J J J S J J J J S J S J J J J S J G J S J J Z J W sXsXsXsX",
"sXsX( n j y y y y y y y y y y y y y y y y y y y y y y y y y y y y y y y y y y y y y y y y y y y y y y y y y y y y y y y Z ( sXsX",
"sX( g y n y y n y j y j y n y n j y j y g g y j j y y g n y n y y y n y n y g g n y n y y y n y y n g y y n y j g y j g y g ( sX",
"sXZ y y y y j y n y n y j y j y y n y n y g n y y n y g y j y j n y y j y g g y y j y j n y y j j y g g j y n y y n y j y y Z sX",
"W y y y n y y j j y j y y j y n j y n y y j y j n y j y n y n y y n y n j y j y n y j y y j y j y n j j y n y n j y j y j n y W ",
"J y j y j j n y y n y n n y j y y n y j n y n j y j j y y j y j j y j y y n y n y j y n n y n j j y y j j y j y y n y n g y y G ",
"G y j n y j y j n y j y j y y n j y j y y j y y n y j y n y j y y n j j j y j y y j y n y j y y y y j y y y n n n y j y y n y J ",
"G y j y n y n y y j y n y n y y y n n j n n n n n j n n n j n y y y y j n n n n n n y y j y n n n n n n n j y y y j y n y y y J ",
"G y y n y n y n n y j y n n y j < = < < < < < < < < < < < = 5 j y j y < = < < < < < j y y n < < < < = < < y y y n y y n y n y G ",
"G y j y j y j y y j y n y y y 5 *.9.,.1.,.,.4.1.,.,.,.4.,.q.O.< n 5 J 1.,.,.4.1.3.:.g y j 5 -.4.,.1.1.,.,.Z y y y j j y j y y J ",
"n y y j y n y j n y n y y n < a.iXiXiXiXiXiXiXiXiXiXiXiXiXiXiX9.= Z (.iXiXiXiXiXiXiXB.5 < g.iXiXiXiXiXiXiXJ.5 n j n y n y g y S ",
"G y n y j y n y y j y j j n & N.iX8XiXiXiXiXiXiXiXiXiXiXiX8XiXv.@ X.7XiXiXiXiXiXiXiX}.n = F.iX8XiXiXiXiXiX:XU y g y j y n y y J ",
"M y j j y j y j y n y n y n & m.iXiX$X(.{.iXiX7X'.'.'.(.%XiXiXv.= 5 g.].].8XiX7X).).a.5 = S.iXiX.X).].8XiX:XU y g j y j y n y G ",
"G y y j n y n y j y j y n n & N.iXiXg.  O.8XiX@X5 < e @ v.iXiXv.= n < = ( 7XiX X< < < n = S.iXiXr.O W 1XiX:XU 5 g y n y j y y J ",
"G y j j y j y n y n g g y n & m.iXiXh.@ *.8XiX#XZ y G = b.iXiXl.& n n 5 } 3XiX.Xy n n n = F.iXiXp.= _ 1XiX:X! 5 g y y n y g y S ",
"n y n y n y j y j y y g g n & m.iXiXg.O *.8XiX@Xn y n & v.iXiXl.& n n 5 } 3XiX.Xy j y n = S.iXiXp.& _ :XiX-X! y y n j y n y y J ",
"G y n y j y j y j y n y n n & N.iXiXh.@ %.8XiX@Xn y M & v.iXiXv.= n n 5 } 3XiX Xy j y n = F.iXiXa.& _ 1XiX*XU y y j n y j y y J ",
"G y y j y n y n y n y j y n < q.iX5X:.= %.7XiX@Xn y M = b.iXiXv.& n j 5 ] 3XiX.Xy y j n = S.iXiXr.< y J.iXC.< j n y y j y n y J ",
"M y j j n y j y j y j y y y n < O.} 5 5 #.8XiX@Xn y n & v.iXiXv.& n y 5 ] 3XiX.Xg y g n = F.iXiXr.= y Z ;.Z y n y y j y y n y J ",
"G y j y y j y n y n y n j j y n 5 5 n 5 X.8XiX@Xn y n & v.iXiXv.& n n 5 ] 3XiX Xg y y Z = S.iXiXa.= n y < y y y y n y n y y y S ",
"G y n y j y j y j y n y j y j y y n n 5 X.8XiX@Xn y M & b.iXiXl.& n n 5 ] 3XiX.Xy y g n = S.iXiXa.= n y j y y y y n y n n y y J ",
"G y y j y n y n y n y j y n y j j j y 5 X.7XiX@Xn y M = v.iXiXl.& n n 5 ] 3XiX.Xy g y n = F.iXiXa.= n n y n n y j y j y y j y J ",
"M y n y n y j y j y j y n y n y y n n < #.8XiX@Xn y n & v.iXiXv.& n y 5 ] 3XiX.Xy y y G = F.iXiXr.< n y y j y j y n y j g y y J ",
"G y y j y j y n y n y n y j y j j y j 5 X.8XiX@Xn y n = b.iXiXv.& n n 5 } 5XiX.Xy j y n = S.iXiXa.= n y n y n y j y n y g g y J ",
"M y j j n y j y j y j y n y j y y j n < X.7XiX@Xn y M = v.iXiXv.& n j 5 } 3XiX|.g y g n = S.iXiXr.= n n n y n y y n y j y j y J ",
"G y y j y j y n y n y n y j y n n y j 5 #.7XiX@Xn y n & b.iXiXv.& n n 5 } 3XiX|.y y y G = S.iXiXa.= n y y j y j j y n y n y y J ",
"G y j j n y n y n y j y n y n y j y n 5 X.7XiX@Xn y n = v.iXiXl.& n n 5 } 3XiX.Xy j y n = F.iXiXa.= n y j y n y y j y j g g y S ",
"n y n y y j y j y j y n y j y j y y n 5 #.8XiX@Xn y n & v.iXiXl.& n y 5 ] 3XiX.Xy y j n = S.iXiXa.= n j y n y j n y n y y y y J ",
"G y n y j y n y j y n y j y n y n y j 5 X.7XiX@Xn y n = v.iXiXv.= n n 5 ] 3XiX.Xy y g n = F.iXiXr.= n j n y j y n y n y n y y J ",
"G y y j y n y j y n y j y n y j y j n 5 X.8XiX@Xn y n & b.iXiXv.& n y 5 ] 3XiX Xg y g n = S.iXiXa.= n j y j y n y j y j y j y J ",
"M y j j j y j y j y j y j y j y n y n 5 X.8XiX@Xn y n & v.iXiXv.& n n 5 } 3XiX.Xg y y n = F.iXiXa.= n y n y n y j y n y y g y J ",
"G y j y y n y n y n y n y n y n y j n < X.8XiX@Xn y M = v.iXiXv.& n g 5 ] 3XiX.Xy y g Z = S.iXiXa.= n y y j y j y n y g g g y J ",
"Z j n y n y n y n y n y n y n y n y n 5 #.8XiX@Xn j n & b.iXiXl.& n j 5 } 3XiX|.g y g n = S.iXiXa.= n y y j y j y n y j y j y J ",
"Z y y j y j y j y j y j y j y j y j y 5 X.8XiX@Xn y n & v.iXiXl.& n n 5 } 3XiX|.y y y G = S.iXiXr.< n n n y n y j y n y n y y J ",
"Z y n y j y n y j y n y j y n y j y n < X.7XiX@Xn y n = v.iXiXv.& n n 5 } 3XiX.Xy j y n = F.iXiXa.= n y y j y n y j y j y g y S ",
"G y y j y n y j y n y j y n y j y n j 5 #.7XiX@Xn y n = b.iXiXv.& n y 5 ] 3XiX.Xy y j n = S.iXiXr.= n y n y j y n y n y n y y J ",
"M y j j n y j y j y j y n y j y j y n 5 X.7XiX@Xn y n & v.iXiXv.= n n 5 ] 3XiX.Xy y g n = F.iXiXa.< n y y n y j y j y j y n y G ",
"G y j y y j y n y n y n y j y n y n n 5 #.7XiX@Xn y n & b.iXiXv.& n y 5 ] 3XiX Xg y g n = S.iXiXr.= n j j y n y n y n y j y y J ",
"Z j j y n y n y n y j y n y n y j y y 5 X.7XiX@Xn y n = v.iXiXl.& n n 5 } 3XiX.Xg y y n = F.iXiXa.= n j y j y j y j y n y g y S ",
"Z y y n y j y j y j y n y j y j j y n 5 #.7XiX@Xn y n & v.iXiXl.& n g 5 ] 3XiX.Xy y g Z = S.iXiXa.= n y n y n y n y j y n y y J ",
"Z y n y j y j y j y n y n y n y y n j 5 X.8XiX@Xn y M & v.iXiXv.& n n 5 ] 3XiX.Xy y g n = S.iXiXa.= n y y j y j y j y n y n y G ",
"G y y j y n y n y n y j y j y j j y n 5 X.8XiX@Xn y M = b.iXiXv.& n n 5 ] 3XiX.Xy g y n = F.iXiXr.= n j n y n y n y j y j y y J ",
"M y j j n y j y y y n y n j j y y j n 5 #.8XiX@Xn y n & v.iXiXv.& n y 5 ] 3XiX Xy j g n = F.iXiXa.< n y y j y n y n y n y g y S ",
"G y j y y j y n n y y n y y y n n y y 5 X.8XiX@Xn y n & v.iXiXv.& n n 5 } 3XiX.Xy y y n = S.iXiXr.= n y n y j y j y j y n y y J ",
"G y y n j y j y y n y < y j y j n y n 5 X.7XiX@Xn y M & v.iXiXv.& n j 5 } 5XiX.Xy g y n = S.iXiXa.= n j y n y n y j y j y n y G ",
"G y j y y n y j y y g =.Z 5 n y y j y 5 X.7XiX@Xn y M = v.iXiXl.& n n 5 } 3XiX.Xy y j n = S.iXiXa.= n y j y j y n y n y j y y J ",
"n y y j y n n y n 5 S.iXS.< j j j y n < #.8XiX@Xn y n & v.iXiXv.& n n 5 ] 3XiX.Xg g g n = F.iXiXa.= n y y n y j y j y n y g y S ",
"n j n y j y y n 5 U *XiX1X! 5 n y n j 5 X.8XiX@Xn y n = b.iXiXv.& n y 5 ] 3XiX|.y y y n = F.iXiXr.= n j j y n y n y j y n y y J ",
"G j y j y n y g 5 ! *XiX:X! y n y y n 5 O.8XiX@Xn y M = v.iXiXv.= n n 5 } 3XiX.Xy y y n = S.iXiXa.= n j y n y n y j y n y n y G ",
"n y y j j y j g y ! :XiX2X_ y n n n n 5 %.8XiX@Xn y n & b.iXiXv.= G n 5  .4XiX.Xg n n Z < F.iXiXa.= n y j y j y n y j y j y y G ",
"G y j j y n y g 5 U :XiX1XL = < < < < & | 8XiX@Xn y n = v.iXiXj.O 4 < & Q 3XiX.X= < = e O Z.iXiXa.= n y y n y j y n y n y n y J ",
"n y n y j y n g y U -XiX8XQ.U.U.E.U.U.U.(.8XiX@Xn y n & v.iXiX@XL.U.U.U.(.8XiX3XU.E.R.R.L.&XiXiXt.= n j j y n y j y j y y y y S ",
"G y n y j y j g y ! 1XiXiXiXiXiXiXiXiXiXiX8XiX#Xn y n & b.iX8XiXiXiXiXiXiXiXiXiXiXiXiXiXiXiXwXiXa.= n y y j y n n y n y n y y J ",
"G y y j y n j y j 5 L.iXwXiXiXiXiXiXiXiXiXiXiXV.< n n < t.iXiXiXiXiXiXiXiXiXiXiXiXiXiXiXiXiXiX:XX.5 n j n y j y y j y j y j y J ",
"M y j j j y j y y y S 4.q.4.9.4.4.q.q.4.9.q.1.Z 5 j y j < *.q.4.9.4.9.4.9.4.9.4.9.4.9.4.4.9.q.} < n y j y n y n j y n y y g y J ",
"G y j y y n y n y g y < = < < < < = < = < = < y j y n y j 5 = < < < < < < < = < < < < < < < = 5 j y j y j y j y y n y y n g y J ",
"G y y n n y n y n y y n n n j n n n n n j n n y y y j y y n n n n n n n j n n j n n j n n j n y y y n y n y n y j y n y j y y J ",
"G y j y y j y j j y n y y j j y y j y j j y y n j n y n j y y j y y j y y j j y j y y j j y n y n j y j y j y j y n y j y n y J ",
"G y y j j y n y y j y j j y y j n y n y y y n y j y j y y j n y n n y n y n y n y n y j y j y j y j n y j y n y j y j y n y y J ",
"U y n y y n y j n y n y y n y j y j y j j j y j y n y n y j y j y y j y j y j y j y n y n y n y y j y j y n y j y n y n y j y W ",
"sXZ y y y j j y n y y j n y n y y j j y y j j j j y j y y j j y y j j j y j y n j y j n n y y j n y n y y j j y y j y y y y n sX",
"sX) n y y n y n y j j j y j y j j j y n n j y j y n y n j j y n n j y j n y j y j j j y y j j j y j y j j j y n n y n n y n ( sX",
"sXsX( n y y y y y y y y y y y j y y y y y y y y y y y y y y y y y y y y y y y y y y y y y y y y y y y j y y y y y y y y n ( sXsX",
"sXsXsXsXU G G M G G G M G Z Z G G M G G n G G M G M G G G M G G n G G M G n G G G M G M G G G M G Z Z G G M G G n G Z W sXsXsXsX"
};
